<svg xmlns="http://www.w3.org/2000/svg" xmlns:xlink="http://www.w3.org/1999/xlink" id="Layer_1" x="0" y="0" version="1.1" viewBox="0 0 708.7 77" style="enable-background:new 0 0 708.7 77" xml:space="preserve"><style type="text/css">.st0{fill:#010101}.st1{fill:url(#SVGID_1_)}.st2{fill:url(#SVGID_2_)}.st3{fill:#fff}</style><path d="M316.4,0c-6.1,8.1-9.7,18.1-9.7,29c0,26.5,21.5,48,48,48s48-21.5,48-48c0-10.9-3.6-20.9-9.7-29H316.4z" class="st0"/><linearGradient id="SVGID_1_" x1="0" x2="356" y1="20.966" y2="20.966" gradientUnits="userSpaceOnUse"><stop offset="0" style="stop-color:#679cd3"/><stop offset=".754" style="stop-color:#242426"/><stop offset="1" style="stop-color:#000"/></linearGradient><polygon points="356 0 0 0 26.4 41.9 356 41.9" class="st1"/><linearGradient id="SVGID_2_" x1="352.662" x2="708.662" y1="20.966" y2="20.966" gradientUnits="userSpaceOnUse"><stop offset=".222" style="stop-color:#000"/><stop offset="1" style="stop-color:#f05455"/></linearGradient><polygon points="352.7 0 708.7 0 682.2 41.9 352.7 41.9" class="st2"/><g><g><path d="M356,39.5c-9.3,0-16.9-7.5-16.9-16.8l-23.6,0l0,5c0,0.9,0.7,1.8,1.6,2l9.8,1.8c0.6,2,1.4,3.8,2.3,5.6 l-5.6,8.2c-0.5,0.8-0.4,1.9,0.2,2.6l7,7c0.7,0.7,1.8,0.8,2.6,0.2l8.2-5.6c1.8,0.9,3.6,1.7,5.6,2.3l1.8,9.8c0.2,0.9,1.1,1.6,2,1.6 l9.9,0c0.9,0,1.8-0.7,2-1.6l1.8-9.8c2-0.6,3.9-1.4,5.7-2.4l8.1,5.6c0.8,0.5,1.9,0.4,2.6-0.2l7-7c0.7-0.7,0.8-1.8,0.2-2.6l-5.6-8.1 c0.9-1.7,1.7-3.6,2.3-5.5l9.8-1.8c0.9-0.2,1.6-1.1,1.6-2l0-5l-23.6,0C372.9,32,365.3,39.5,356,39.5z" class="st3"/></g><circle cx="356" cy="22.5" r="8.6" class="st3"/></g></svg>